<svg width="187" height="50" viewBox="0 0 187 50" fill="none" xmlns="http://www.w3.org/2000/svg">
<path d="M60.6 39.76C58.68 39.76 56.9867 39.4533 55.52 38.84C54.0533 38.2267 52.8133 37.4 51.8 36.36C50.7867 35.2933 50.0133 34.0933 49.48 32.76C48.9733 31.4267 48.72 30.04 48.72 28.6V27.76C48.72 26.2667 48.9867 24.8533 49.52 23.52C50.08 22.16 50.8667 20.96 51.88 19.92C52.92 18.8533 54.1733 18.0267 55.64 17.44C57.1067 16.8267 58.76 16.52 60.6 16.52C62.44 16.52 64.0933 16.8267 65.56 17.44C67.0267 18.0267 68.2667 18.8533 69.28 19.92C70.32 20.96 71.1067 22.16 71.64 23.52C72.1733 24.8533 72.44 26.2667 72.44 27.76V28.6C72.44 30.04 72.1733 31.4267 71.64 32.76C71.1333 34.0933 70.3733 35.2933 69.36 36.36C68.3467 37.4 67.1067 38.2267 65.64 38.84C64.1733 39.4533 62.4933 39.76 60.6 39.76ZM60.6 35C61.96 35 63.1067 34.7067 64.04 34.12C64.9733 33.5067 65.68 32.6933 66.16 31.68C66.64 30.64 66.88 29.4667 66.88 28.16C66.88 26.8267 66.6267 25.6533 66.12 24.64C65.64 23.6 64.92 22.7867 63.96 22.2C63.0267 21.5867 61.9067 21.28 60.6 21.28C59.2933 21.28 58.16 21.5867 57.2 22.2C56.2667 22.7867 55.5467 23.6 55.04 24.64C54.5333 25.6533 54.28 26.8267 54.28 28.16C54.28 29.4667 54.52 30.64 55 31.68C55.5067 32.6933 56.2267 33.5067 57.16 34.12C58.0933 34.7067 59.24 35 60.6 35ZM77.7084 39V17.28H82.1084V26.6H81.7084C81.7084 24.3867 82.0018 22.5467 82.5884 21.08C83.1751 19.5867 84.0418 18.4667 85.1884 17.72C86.3618 16.9733 87.8151 16.6 89.5484 16.6H89.7884C92.3751 16.6 94.3351 17.44 95.6684 19.12C97.0018 20.7733 97.6684 23.2533 97.6684 26.56V39H92.1084V26.08C92.1084 24.7467 91.7218 23.6667 90.9484 22.84C90.2018 22.0133 89.1618 21.6 87.8284 21.6C86.4684 21.6 85.3618 22.0267 84.5084 22.88C83.6818 23.7067 83.2684 24.8267 83.2684 26.24V39H77.7084ZM105.086 39V17.28H110.646V39H105.086ZM102.046 21.44V17.28H110.646V21.44H102.046ZM107.126 14.68C106.033 14.68 105.219 14.4 104.686 13.84C104.179 13.2533 103.926 12.5333 103.926 11.68C103.926 10.7733 104.179 10.04 104.686 9.48C105.219 8.92 106.033 8.64 107.126 8.64C108.219 8.64 109.019 8.92 109.526 9.48C110.033 10.04 110.286 10.7733 110.286 11.68C110.286 12.5333 110.033 13.2533 109.526 13.84C109.019 14.4 108.219 14.68 107.126 14.68ZM126.894 39.28C124.894 39.28 123.24 39.0267 121.934 38.52C120.654 37.9867 119.694 37.1067 119.054 35.88C118.414 34.6267 118.094 32.9467 118.094 30.84L118.134 11.16H123.334L123.294 31.2C123.294 32.2667 123.574 33.0933 124.134 33.68C124.72 34.24 125.547 34.52 126.614 34.52H130.014V39.28H126.894ZM114.654 21.36V17.28H130.014V21.36H114.654ZM148.162 39V32.56H147.242V25.4C147.242 24.1467 146.936 23.2133 146.322 22.6C145.709 21.9867 144.762 21.68 143.482 21.68C142.816 21.68 142.016 21.6933 141.082 21.72C140.149 21.7467 139.202 21.7867 138.242 21.84C137.309 21.8667 136.469 21.9067 135.722 21.96V17.24C136.336 17.1867 137.029 17.1333 137.802 17.08C138.576 17.0267 139.362 17 140.162 17C140.989 16.9733 141.762 16.96 142.482 16.96C144.722 16.96 146.576 17.2533 148.042 17.84C149.536 18.4267 150.656 19.3467 151.402 20.6C152.176 21.8533 152.562 23.4933 152.562 25.52V39H148.162ZM141.162 39.56C139.589 39.56 138.202 39.28 137.002 38.72C135.829 38.16 134.909 37.36 134.242 36.32C133.602 35.28 133.282 34.0267 133.282 32.56C133.282 30.96 133.669 29.6533 134.442 28.64C135.242 27.6267 136.349 26.8667 137.762 26.36C139.202 25.8533 140.882 25.6 142.802 25.6H147.842V28.92H142.722C141.442 28.92 140.456 29.24 139.762 29.88C139.096 30.4933 138.762 31.2933 138.762 32.28C138.762 33.2667 139.096 34.0667 139.762 34.68C140.456 35.2933 141.442 35.6 142.722 35.6C143.496 35.6 144.202 35.4667 144.842 35.2C145.509 34.9067 146.056 34.4267 146.482 33.76C146.936 33.0667 147.189 32.1333 147.242 30.96L148.602 32.52C148.469 34.04 148.096 35.32 147.482 36.36C146.896 37.4 146.069 38.2 145.002 38.76C143.962 39.2933 142.682 39.56 141.162 39.56ZM159.958 39V17.28H165.518V39H159.958ZM156.918 21.44V17.28H165.518V21.44H156.918ZM161.998 14.68C160.904 14.68 160.091 14.4 159.558 13.84C159.051 13.2533 158.798 12.5333 158.798 11.68C158.798 10.7733 159.051 10.04 159.558 9.48C160.091 8.92 160.904 8.64 161.998 8.64C163.091 8.64 163.891 8.92 164.398 9.48C164.904 10.04 165.158 10.7733 165.158 11.68C165.158 12.5333 164.904 13.2533 164.398 13.84C163.891 14.4 163.091 14.68 161.998 14.68ZM181.766 39.28C179.766 39.28 178.112 39.0267 176.806 38.52C175.526 37.9867 174.566 37.1067 173.926 35.88C173.286 34.6267 172.966 32.9467 172.966 30.84L173.006 11.16H178.206L178.166 31.2C178.166 32.2667 178.446 33.0933 179.006 33.68C179.592 34.24 180.419 34.52 181.486 34.52H184.886V39.28H181.766ZM169.526 21.36V17.28H184.886V21.36H169.526Z" fill="#A3A3D9"/>
<path fill-rule="evenodd" clip-rule="evenodd" d="M43.761 5.28285L41.2 5.36855L41.9922 6.52001C42.428 7.15313 42.7844 7.72493 42.7844 7.79044C42.7844 7.85595 37.8947 11.1775 31.9186 15.1717L21.0528 22.4337L12.0529 16.407L3.05318 10.3803L1.52646 11.314L0 12.2477L0.165879 14.2102C0.257074 15.2896 0.331759 20.6698 0.331759 26.1664V36.16L2.94469 37.6572C4.38179 38.4805 5.62261 39.1543 5.70201 39.1543C5.78168 39.1543 5.83854 34.6435 5.82858 29.1307C5.81863 23.6179 5.90458 19.1093 6.01936 19.1119C6.13414 19.1143 9.57254 21.3349 13.6606 24.0464L21.0929 28.9761L28.602 23.9761C32.732 21.2262 36.1961 18.9762 36.3001 18.9762C36.4039 18.9762 36.5197 23.5115 36.5574 29.055L36.6261 39.1338L39.1811 37.6509L41.7361 36.1679L41.7374 28.1617C41.7382 23.7581 41.8155 18.9969 41.9094 17.5807L42.0797 15.0063L43.9922 13.716L45.9044 12.4256L46.7317 13.6279C47.1866 14.2894 47.6468 14.7314 47.7539 14.6104C47.9879 14.346 51.6999 5.56509 51.6965 5.2839C51.6942 5.09627 49.3456 5.09575 43.761 5.28285Z" fill="#A3A3D9"/>
<path fill-rule="evenodd" clip-rule="evenodd" d="M13.7104 4.15119C9.75441 6.43183 6.47901 8.41479 6.43131 8.55761C6.33802 8.83748 10.6111 11.7882 11.1097 11.7882C11.2754 11.7882 13.5804 10.5461 16.2321 9.02773L21.0536 6.26726L25.8481 9.02773C28.4852 10.5461 30.7815 11.7882 30.9511 11.7882C31.4435 11.7882 35.7317 8.84325 35.64 8.56809C35.5944 8.43104 34.1466 7.4976 32.4228 6.49394C27.4322 3.58856 21.1141 -0.00445076 21.0041 4.13855e-06C20.9485 0.00262467 17.6663 1.87054 13.7104 4.15119ZM8.77459 37.9228L8.84849 40.9969L14.9397 44.4984L21.0306 48L25.8149 45.2589C28.4461 43.7513 31.1885 42.1701 31.9092 41.7448L33.2194 40.9715L33.2933 37.9102C33.3339 36.2265 33.2632 34.8489 33.1361 34.8489C33.009 34.8489 30.2404 36.3887 26.9839 38.2705L21.0628 41.6921L15.1037 38.2705C11.8265 36.3887 9.04503 34.8489 8.92291 34.8489C8.8008 34.8489 8.73398 36.2322 8.77459 37.9228Z" fill="#A3A3D9" fill-opacity="0.56"/>
</svg>
